# AST/ASF file generated using VICON BodyLanguage
# -----------------------------------------------
:version 1.10
:name VICON
:units
  mass 1.0
  length 0.45
  angle deg
:documentation
   .ast/.asf automatically generated from VICON data using
   VICON BodyBuilder and BodyLanguage model FoxedUp or BRILLIANT.MOD
:root
   order TX TY TZ RX RY RZ
   axis XYZ
   position 0 0 0  
   orientation 0 0 0 
:bonedata
  begin
     id 1 
     name lhipjoint
     direction 0.598477 -0.721498 0.348234 
     length 2.38516 
     axis 0 0 0  XYZ
  end
  begin
     id 2 
     name lfemur
     direction 0.34202 -0.939693 0  
     length 6.81097  
     axis 0 0 20  XYZ
    dof rx ry rz
    limits (-160.0 20.0)
           (-70.0 70.0)
           (-60.0 70.0)
  end
  begin
     id 3 
     name ltibia
     direction 0.34202 -0.939693 0   
     length 7.43697   
     axis 0 0 20   XYZ
    dof rx
    limits (-10.0 170.0)
  end
  begin
     id 4 
     name lfoot
     direction 0.0644912 -0.177188 0.982062   
     length 2.0384   
     axis -90 7.62852e-016 20   XYZ
    dof rx rz
    limits (-45.0 90.0)
           (-70.0 20.0)
  end
  begin
     id 5 
     name ltoes
     direction 1.53517e-011 -4.21905e-011 1   
     length 1.02854   
     axis -90 7.62852e-016 20   XYZ
    dof rx
    limits (-90.0 20.0)
  end
  begin
     id 6 
     name rhipjoint
     direction -0.591517 -0.726138 0.350474   
     length 2.36992  
     axis 0 0 0  XYZ 
  end
  begin
     id 7 
     name rfemur
     direction -0.34202 -0.939693 0   
     length 6.93503   
     axis 0 0 -20   XYZ
    dof rx ry rz
    limits (-160.0 20.0)
           (-70.0 70.0)
           (-70.0 60.0)
  end
  begin
     id 8 
     name rtibia
     direction -0.34202 -0.939693 0   
     length 7.45107   
     axis 0 0 -20   XYZ
    dof rx
    limits (-10.0 170.0)
 end
 begin
     id 9 
     name rfoot
     direction -0.0677555 -0.186157 0.980181   
     length 1.90244  
     axis -90 -7.62852e-016 -20   XYZ
    dof rx rz
    limits (-45.0 90.0)
           (-20.0 70.0)
  end
  begin
     id 10 
     name rtoes
     direction -1.53409e-011 -4.21428e-011 1   
     length 0.961454   
     axis -90 -7.62852e-016 -20   XYZ
    dof rx
    limits (-90.0 20.0)
  end
  begin
     id 11 
     name lowerback
     direction -0.0289484 0.992437 0.119291   
     length 1.96261   
     axis 0 0 0   XYZ
    dof rx ry rz
    limits (-20.0 45.0)
           (-30.0 30.0)
           (-30.0 30.0)
  end
  begin
     id 12 
     name upperback
     direction 0.0109352 0.999834 0.0146028   
     length 1.96894   
     axis 0 0 0   XYZ
    dof rx ry rz
    limits (-20.0 45.0)
           (-30.0 30.0)
           (-30.0 30.0)
  end
  begin
     id 13 
     name thorax
     direction 0.0232227 0.998895 -0.0408582   
     length 2.00029   
     axis 0 0 0   XYZ
    dof rx ry rz
    limits (-20.0 45.0)
           (-30.0 30.0)
           (-30.0 30.0)
  end
  begin
     id 14 
     name lowerneck
     direction -0.00291659 0.999583 0.0287188   
     length 1.72722   
     axis 0 0 0   XYZ
    dof rx ry rz
    limits (-20.0 45.0)
           (-30.0 30.0)
           (-30.0 30.0)
  end
  begin
     id 15 
     name upperneck
     direction 0.0277639 0.998467 -0.0478817   
     length 1.68525   
     axis 0 0 0   XYZ
    dof rx ry rz
    limits (-20.0 45.0)
           (-30.0 30.0)
           (-30.0 30.0)
  end
  begin
     id 16
     name head
     direction 0.00895921 0.999741 -0.020943  
     length 1.78934  
     axis 0 0 0   XYZ
    dof rx ry rz
    limits (-20.0 45.0)
           (-30.0 30.0)
           (-30.0 30.0)
  end
  begin
     id 17 
     name lclavicle
     direction 0.907972 0.393865 -0.143029  
     length 3.37543  
     axis 0 0 0   XYZ
    dof ry rz
    limits (-20.0 10.0)
           (0.0 20.0)
  end
  begin
     id 18 
     name lhumerus
     direction 1 -4.48915e-011 -1.10425e-027   
     length 4.94762   
     axis -180 -30 -90   XYZ
    dof rx ry rz
    limits (-60.0 90.0)
           (-90.0 90.0)
           (-90.0 90.0)
  end
  begin
     id 19
     name lradius
     direction 1 1.63657e-005 -9.44877e-006   
     length 3.11144   
     axis -180 -30 -90   XYZ
    dof rx
    limits (-10.0 170.0)
  end
  begin
     id 20
     name lwrist
     direction 1 -5.04565e-007 -1.8883e-005   
     length 1.55572   
     axis 1.22104e-015 90 90   XYZ
    dof ry
    limits (-180.0 0.0)
 end
  begin
     id 21 
     name lhand
     direction 1 -4.48949e-011 -2.20333e-027   
     length 0.686387   
     axis 1.40591e-015 90 90   XYZ
    dof rx rz
    limits (-90.0 90.0)
           (-45.0 45.0)
  end
  begin
     id 22 
     name lfingers
     direction 1 -4.49191e-011 -4.40665e-027   
     length 0.553383   
     axis 2.81182e-015 90 90   XYZ
    dof rx
    limits (0.0 90.0)
  end
  begin
     id 23
     name lthumb
     direction 0.707107 -6.35116e-011 0.707107   
     length 0.79455   
     axis -90 45 2.85299e-015   XYZ
    dof rx rz
    limits (-45.0 45.0)
           (-45.0 45.0)
  end
  begin
     id 24 
     name rclavicle
     direction -0.947168 0.319303 -0.0302977   
     length 3.53547  
     axis 0 0 0   XYZ 
    dof ry rz
    limits (-10.0 20.0)
           (-20.0 0.0)
  end
  begin
     id 25 
     name rhumerus
     direction -1 -0.000401632 0.000196042  
     length 4.77566   
     axis -180 30 90   XYZ
    dof rx ry rz
    limits (-90.0 60.0)
           (-90.0 90.0)
           (-90.0 90.0)
  end
  begin
     id 26 
     name rradius
     direction -1 -4.49012e-011 -4.87197e-027   
     length 3.21433   
     axis -180 30 90   XYZ
    dof rx
    limits (-10.0 170.0)
  end
  begin
     id 27 
     name rwrist
     direction -1 -4.48899e-011 -5.86351e-027   
     length 1.60716   
     axis 3.17445e-015 -90 -90   XYZ
    dof ry
    limits (-180.0 0.0)
  end
  begin
     id 28
     name rhand
     direction -0.999958 0.00678358 -0.00613214   
     length 0.625487   
     axis 7.48284e-015 -90 -90   XYZ
    dof rx rz
    limits (-90.0 90.0)
           (-45.0 45.0)
  end
  begin
     id 29
     name rfingers
     direction -1 -4.48756e-011 -2.3454e-026   
     length 0.505648   
     axis 1.49657e-014 -90 -90   XYZ
    dof rx
    limits (0.0 90.0)
  end
  begin
     id 30
     name rthumb
     direction -0.708559 0.00587598 0.705627   
     length 0.722099   
     axis -90 -45 -2.85299e-015   XYZ
    dof rx rz
    limits (-45.0 45.0)
           (-45.0 45.0)
  end
:hierarchy
  begin
    root lhipjoint rhipjoint lowerback
    lhipjoint lfemur
    lfemur ltibia
    ltibia lfoot
    lfoot ltoes
    rhipjoint rfemur
    rfemur rtibia
    rtibia rfoot
    rfoot rtoes
    lowerback upperback
    upperback thorax
    thorax lowerneck lclavicle rclavicle
    lowerneck upperneck
    upperneck head
    lclavicle lhumerus
    lhumerus lradius
    lradius lwrist
    lwrist lhand lthumb
    lhand lfingers
    rclavicle rhumerus
    rhumerus rradius
    rradius rwrist
    rwrist rhand rthumb
    rhand rfingers
  end

#!OML:ASF C:\Documents and Settings\Administrator\Desktop\SteveTeapot.ASF
:FULLY-SPECIFIED
:DEGREES
354
root -0.577039 16.4216 -7.91398 15.767 -0.246767 0.630789
lowerback -13.6223 -1.43862 -3.28414
upperback -3.60497 -1.51439 1.27437
thorax 3.95079 -0.771053 2.93814
lowerneck -5.64159 -1.44376 0.213507
upperneck 11.5451 -2.25871 2.36482
head 4.89676 -0.976021 0.634425
rclavicle 1.23433e-014 1.78906e-015
rhumerus -29.9369 36.6099 -94.1654
rradius 115.342
rwrist -7.23557
rhand -33.5879 -21.2878
rfingers 7.12502
rthumb -6.7818 -51.1592
lclavicle 1.23433e-014 1.78906e-015
lhumerus -21.8703 -34.312 92.907
lradius 110.804
lwrist -2.17941
lhand -39.3753 -51.554
lfingers 7.12502
lthumb -12.3655 -21.9397
rfemur -29.3834 -5.3618 17.5331
rtibia 38.2477
rfoot -24.1423 -5.5689
rtoes -22.0715
lfemur -31.2196 1.26627 -17.6802
ltibia 38.0359
lfoot -18.9489 9.57156
ltoes -20.054
355
root -0.577001 16.4199 -7.90996 15.7486 -0.251061 0.50525
lowerback -13.6435 -1.41834 -3.13155
upperback -3.59721 -1.50897 1.29828
thorax 3.96722 -0.767852 2.87734
lowerneck -5.64811 -1.4251 0.178435
upperneck 11.8895 -2.2453 2.44296
head 4.51413 -0.957699 0.596719
rclavicle -7.34882e-015 -2.78299e-015
rhumerus -29.7941 36.6947 -94.0891
rradius 115.2
rwrist -7.27512
rhand -33.6488 -21.2461
rfingers 7.12502
rthumb -6.8406 -51.1156
lclavicle -7.34882e-015 -2.78299e-015
lhumerus -21.7216 -34.3622 92.7374
lradius 110.796
lwrist -2.21195
lhand -39.5471 -51.2806
lfingers 7.12502
lthumb -12.5311 -21.6764
rfemur -29.3154 -5.38875 17.6724
rtibia 38.2214
rfoot -24.1753 -5.47977
rtoes -21.9866
lfemur -31.1886 1.2989 -17.5407
ltibia 38.0565
lfoot -18.9664 9.59616
ltoes -20.0634
356
root -0.576366 16.4186 -7.90679 15.7476 -0.315251 0.447347
lowerback -13.6985 -1.40661 -3.06101
upperback -3.56525 -1.50202 1.31022
thorax 4.02896 -0.765441 2.85005
lowerneck -5.74344 -1.40803 0.222475
upperneck 11.8589 -2.21862 2.37468
head 4.51927 -0.946171 0.569412
rclavicle 1.33558e-015 3.57812e-015
rhumerus -29.7042 36.7743 -93.9937
rradius 115.085
rwrist -7.18687
rhand -33.452 -21.2746
rfingers 7.12502
rthumb -6.65057 -51.1502
lclavicle 1.33558e-015 3.57812e-015
lhumerus -21.4956 -34.3168 92.5135
lradius 110.648
lwrist -2.24022
lhand -39.6359 -51.5634
lfingers 7.12502
lthumb -12.6167 -21.9645
rfemur -29.2968 -5.37321 17.7185
rtibia 38.2033
rfoot -24.1794 -5.40222
rtoes -21.7505
lfemur -31.1658 1.33094 -17.485
ltibia 38.0749
lfoot -19.0035 9.6555
ltoes -20.1751
357
root -0.57645 16.4195 -7.90377 15.8092 -0.336478 0.451627
lowerback -13.7905 -1.40738 -3.04746
upperback -3.58316 -1.5019 1.30137
thorax 4.05958 -0.765472 2.83191
lowerneck -5.73078 -1.41443 0.207053
upperneck 11.8318 -2.2273 2.39478
head 4.50932 -0.950371 0.577781
rclavicle 7.80851e-015 -2.98177e-015
rhumerus -29.775 36.769 -93.9454
rradius 114.965
rwrist -6.96597
rhand -33.323 -21.3319
rfingers 7.12502
rthumb -6.52607 -51.2113
lclavicle 7.80851e-015 -2.98177e-015
lhumerus -21.3085 -34.1799 92.2528
lradius 110.556
lwrist -2.19159
lhand -39.3073 -52.4945
lfingers 7.12502
lthumb -12.3 -22.8762
rfemur -29.3707 -5.46137 17.7309
rtibia 38.1801
rfoot -24.1785 -5.27207
rtoes -21.709
lfemur -31.2252 1.37507 -17.508
ltibia 38.091
lfoot -18.9452 9.68974
ltoes -20.5208
358
root -0.579213 16.4184 -7.90521 15.8548 -0.383383 0.471788
lowerback -13.7706 -1.40206 -3.09671
upperback -3.64359 -1.48875 1.29636
thorax 3.98516 -0.757262 2.85764
lowerneck -5.69694 -1.40737 0.181848
upperneck 11.4675 -2.20452 2.36164
head 4.87907 -0.951381 0.641839
rclavicle 1.49089e-015 -4.77083e-015
rhumerus -29.8876 36.7281 -93.883
rradius 114.832
rwrist -6.72096
rhand -33.2385 -21.3489
rfingers 7.12502
rthumb -6.44446 -51.2309
lclavicle 1.49089e-015 -4.77083e-015
lhumerus -21.2079 -34.0511 92.0368
lradius 110.582
lwrist -2.10426
lhand -38.9936 -52.5756
lfingers 7.12502
lthumb -11.9975 -22.9395
rfemur -29.4515 -5.3886 17.714
rtibia 38.1694
rfoot -24.1754 -5.33765
rtoes -21.9833
lfemur -31.2798 1.373 -17.5187
ltibia 38.0878
lfoot -18.9203 9.69772
ltoes -20.3616
359
root -0.581412 16.4198 -7.9027 15.844 -0.414693 0.440714
lowerback -13.7443 -1.39125 -3.0875
upperback -3.65119 -1.4775 1.31543
thorax 3.96237 -0.751217 2.87486
lowerneck -5.71701 -1.40104 0.154956
upperneck 11.442 -2.19262 2.36081
head 4.87398 -0.946859 0.646942
rclavicle -3.516e-015 1.59028e-014
rhumerus -29.8979 36.7334 -93.8054
rradius 114.692
rwrist -6.76525
rhand -33.0507 -21.4527
rfingers 7.12502
rthumb -6.26312 -51.3401
lclavicle -3.516e-015 1.59028e-014
lhumerus -21.0685 -34.1042 91.8508
lradius 110.546
lwrist -2.10734
lhand -39.1432 -51.9651
lfingers 7.12502
lthumb -12.1417 -22.3375
rfemur -29.4246 -5.3543 17.7486
rtibia 38.1563
rfoot -24.2176 -5.34237
rtoes -21.8741
lfemur -31.2376 1.39412 -17.4793
ltibia 38.0778
lfoot -18.9629 9.66961
ltoes -20.1491
360
root -0.585163 16.4227 -7.897 15.8178 -0.456304 0.425199
lowerback -13.764 -1.39314 -3.12172
upperback -3.63177 -1.47538 1.33163
thorax 3.99448 -0.751206 2.91127
lowerneck -5.76612 -1.39896 0.0393495
upperneck 11.4043 -2.19245 2.48808
head 4.87418 -0.945084 0.710979
rclavicle 2.23633e-015 -1.39149e-015
rhumerus -29.8504 36.8956 -93.7323
rradius 114.571
rwrist -6.89204
rhand -33.0248 -21.5146
rfingers 7.12502
rthumb -6.23818 -51.4027
lclavicle 2.23633e-015 -1.39149e-015
lhumerus -20.8251 -34.0931 91.6
lradius 110.51
lwrist -2.09609
lhand -39.088 -51.5818
lfingers 7.12502
lthumb -12.0885 -21.951
rfemur -29.3661 -5.34042 17.7744
rtibia 38.1463
rfoot -24.1697 -5.34987
rtoes -21.8224
lfemur -31.1477 1.41815 -17.4447
ltibia 38.0593
lfoot -19.1327 9.5366
ltoes -19.6104
361
root -0.587246 16.4236 -7.8928 15.8148 -0.43071 0.367649
lowerback -13.8301 -1.38279 -3.06086
upperback -3.58661 -1.46853 1.34418
thorax 4.07648 -0.749352 2.88989
lowerneck -5.85086 -1.41338 -0.00920834
upperneck 11.7321 -2.22832 2.61308
head 4.5037 -0.947873 0.679477
rclavicle -5.90142e-016 3.57812e-015
rhumerus -29.7268 37.0294 -93.561
rradius 114.489
rwrist -7.24251
rhand -32.9517 -21.7773
rfingers 7.12502
rthumb -6.16759 -51.6675
lclavicle -5.90142e-016 3.57812e-015
lhumerus -20.3309 -34.2322 91.1526
lradius 110.674
lwrist -1.87101
lhand -38.7735 -50.8975
lfingers 7.12502
lthumb -11.7852 -21.249
rfemur -29.3356 -5.30896 17.8446
rtibia 38.1352
rfoot -24.0914 -5.36848
rtoes -21.7233
lfemur -31.1206 1.43386 -17.3749
ltibia 38.0337
lfoot -19.0928 9.51959
ltoes -19.649
362
root -0.586761 16.4236 -7.88801 15.8158 -0.365421 0.402055
lowerback -13.9225 -1.39241 -3.04411
upperback -3.52591 -1.47899 1.31349
thorax 4.19022 -0.756925 2.84448
lowerneck -6.04709 -1.42307 0.0411559
upperneck 11.7514 -2.24473 2.57903
head 4.54197 -0.953827 0.658374
rclavicle -5.20567e-015 3.37934e-015
rhumerus -29.7767 37.1111 -93.4526
rradius 114.541
rwrist -8.02068
rhand -32.7413 -22.2128
rfingers 7.12502
rthumb -5.96447 -52.1088
lclavicle -5.20567e-015 3.37934e-015
lhumerus -19.7692 -34.4233 90.6202
lradius 110.967
lwrist -1.63666
lhand -38.3354 -50.243
lfingers 7.12502
lthumb -11.3628 -20.5708
rfemur -29.3042 -5.45134 17.8285
rtibia 38.129
rfoot -24.0962 -5.32093
rtoes -21.8437
lfemur -31.0908 1.38704 -17.4141
ltibia 38
lfoot -19.0324 9.63907
ltoes -20.1307
363
root -0.587855 16.423 -7.88434 15.8079 -0.356226 0.526207
lowerback -14.0207 -1.42549 -3.16018
upperback -3.47555 -1.50089 1.27152
thorax 4.29986 -0.770985 2.86042
lowerneck -6.08285 -1.45212 0.0933846
upperneck 11.6355 -2.27701 2.49965
head 4.51147 -0.973011 0.623623
rclavicle 4.87644e-015 -2.38542e-015
rhumerus -29.897 37.215 -93.3984
rradius 114.694
rwrist -9.72068
rhand -32.3178 -22.3239
rfingers 7.12502
rthumb -5.55556 -52.2311
lclavicle 4.87644e-015 -2.38542e-015
lhumerus -19.2269 -34.5295 90.0225
lradius 111.3
lwrist -1.33414
lhand -37.847 -50.1395
lfingers 7.12502
lthumb -10.8917 -20.442
rfemur -29.277 -5.55558 17.7028
rtibia 38.1213
rfoot -24.112 -5.30515
rtoes -21.941
lfemur -31.0502 1.35521 -17.5454
ltibia 37.9616
lfoot -19.0677 9.67493
ltoes -20.1485
364
root -0.589622 16.4236 -7.88209 15.8064 -0.339477 0.532422
lowerback -14.1615 -1.4407 -3.1534
upperback -3.40016 -1.51607 1.25075
thorax 4.4564 -0.781886 2.82932
lowerneck -6.10527 -1.49149 0.128668
upperneck 11.5443 -2.32821 2.47103
head 4.48727 -0.999144 0.606221
rclavicle 5.93869e-015 8.54774e-015
rhumerus -29.9316 37.3676 -93.3198
rradius 114.973
rwrist -12.4312
rhand -31.4308 -22.7678
rfingers 7.12502
rthumb -4.69913 -52.6957
lclavicle 5.93869e-015 8.54774e-015
lhumerus -18.4518 -34.6167 89.2264
lradius 111.666
lwrist -0.867884
lhand -37.0269 -50.2973
lfingers 7.12502
lthumb -10.1006 -20.5597
rfemur -29.2713 -5.55196 17.7053
rtibia 38.1134
rfoot -24.1072 -5.37227
rtoes -22.0572
lfemur -31.0183 1.37116 -17.5464
ltibia 37.9096
lfoot -19.0368 9.60245
ltoes -20.0787
